<svg width="147" height="26" viewBox="0 0 147 26" fill="none" xmlns="http://www.w3.org/2000/svg">
<path d="M18.2209 0.0488551C17.4401 0.146828 16.3957 0.617097 15.5055 1.26862C14.844 1.75358 13.8494 2.69902 13.3172 3.35054C12.616 4.2078 11.9744 5.23651 11.5865 6.11337L11.4075 6.52485L11.5766 6.99512C11.9346 7.97975 12.1584 9.02316 12.233 10.047C12.2529 10.385 12.2877 10.6887 12.3076 10.7181C12.3325 10.7524 12.5115 10.772 12.7801 10.772C13.2824 10.772 13.8046 10.6544 14.3666 10.4193L14.7446 10.2576L14.7545 9.91471C14.7844 8.97417 15.4259 8.24917 16.6991 7.71032C17.0671 7.55357 17.6191 7.39191 18.017 7.32333C18.2259 7.28414 18.4198 7.0686 18.9271 6.28972C20.9164 3.25256 20.9264 0.362368 18.947 0.0439565C18.7729 0.0194633 18.6088 -0.000131279 18.579 -0.000131279C18.5541 0.00476736 18.39 0.0243619 18.2209 0.0488551Z" fill="#D86C52"/>
<path d="M5.79756 1.76921C5.21071 1.98475 4.76808 2.57749 4.51942 3.47884C4.41498 3.85114 4.40503 3.99809 4.40503 4.94353C4.40503 5.83508 4.42492 6.08002 4.51942 6.54049C4.84268 8.13254 5.34499 9.43558 6.11585 10.7141C6.63805 11.5763 6.95137 11.9633 7.16522 12.0025C8.55277 12.2768 9.62701 12.6099 10.5222 13.0508L11.1538 13.3545L11.3478 13.0655C11.6511 12.5952 11.8252 12.0466 11.9147 11.2824L11.9495 10.9787L11.7158 10.866C11.4323 10.7239 11.0941 10.3761 10.925 10.043C10.6963 9.60703 10.6316 9.21514 10.6664 8.47055C10.6913 7.81413 10.7311 7.60349 10.9449 6.89319L11.0543 6.52089L10.8306 6.02613C10.3332 4.93863 9.66182 3.91482 8.93074 3.14573C8.40855 2.59219 7.97587 2.26398 7.3741 1.96516C6.9265 1.74472 6.88671 1.73982 6.42917 1.72513C6.16061 1.72023 5.8821 1.73492 5.79756 1.76921Z" fill="#D86C52"/>
<path d="M18.8675 7.50955L18.41 7.56344L18.0917 7.93083C17.3755 8.7538 16.4256 9.58657 15.61 10.1058C15.3315 10.2822 15.1724 10.4193 15.1724 10.4732C15.1724 10.5957 15.5006 11.11 15.7791 11.4285C15.9084 11.5754 16.1969 11.8301 16.4157 11.9918L16.8185 12.2906L17.0025 12.1682C17.291 11.982 17.6043 11.8889 17.9823 11.8889C18.8725 11.8791 19.7279 12.3102 20.6828 13.2508L21.1901 13.7553L21.7421 13.8141C22.4583 13.8876 24.1542 13.8435 24.736 13.7406C25.4472 13.6084 26.0092 13.432 26.5613 13.1626C27.2177 12.8491 27.725 12.3788 27.8991 11.9281C28.4213 10.5467 26.8795 8.96934 24.1293 8.07779C22.4682 7.53894 20.4441 7.3185 18.8675 7.50955Z" fill="#D86C52"/>
<path d="M4.15651 12.1925C2.12242 12.364 0.610535 13.0547 0.148016 14.0246C-0.573114 15.5285 1.40626 17.3655 4.65881 18.1983C5.92203 18.5216 7.46376 18.6636 8.68222 18.5706C9.10496 18.5363 9.48293 18.4971 9.52271 18.4824C9.5625 18.4677 9.81117 18.2179 10.0698 17.9239C10.7909 17.1157 11.711 16.3417 12.5365 15.8371C12.7007 15.7392 12.8349 15.6314 12.8349 15.5971C12.8349 15.5677 12.7653 15.4012 12.6808 15.2346C12.5017 14.8819 11.8651 14.2157 11.4524 13.9463L11.1888 13.7699L10.8357 13.9512C10.4925 14.1226 10.4676 14.1275 9.93053 14.1275C9.40833 14.1275 9.35859 14.1177 8.97565 13.9512C8.38382 13.6964 7.89644 13.3535 7.32451 12.7902L6.80728 12.2856L6.45418 12.2464C5.87727 12.1729 4.69363 12.1485 4.15651 12.1925Z" fill="#D86C52"/>
<path d="M16.7091 12.8884C16.3958 13.3047 16.1621 14.0101 16.0924 14.7302L16.0576 15.0585L16.2864 15.176C16.5699 15.323 16.913 15.6806 17.0821 16.0039C17.4551 16.7338 17.4551 17.8115 17.0771 19.0655L16.9478 19.4917L17.0921 19.8444C17.1716 20.0355 17.3855 20.4714 17.5695 20.8046C18.5244 22.524 19.713 23.7437 20.9016 24.2042C21.2895 24.361 22.0206 24.361 22.3389 24.2042C22.8512 23.9544 23.2689 23.3567 23.4828 22.5534C23.632 21.9998 23.6668 20.8046 23.5574 20.0061C23.3634 18.5463 22.8263 16.9836 22.0554 15.612C21.7819 15.1319 21.5332 14.7547 21.0707 14.1375C21.026 14.0836 20.8668 14.0297 20.6132 13.9808C19.4295 13.775 18.3802 13.437 17.4104 12.952L16.8633 12.6826L16.7091 12.8884Z" fill="#D86C52"/>
<path d="M14.7995 15.2789C14.4613 15.3278 14.0236 15.4552 13.6009 15.6316L13.2428 15.7785L13.2229 16.1998C13.208 16.5329 13.1732 16.6799 13.0737 16.8758C12.6062 17.7625 11.532 18.414 10.045 18.7079C9.77146 18.7618 9.76151 18.7716 9.49295 19.139C7.36437 22.0782 6.94164 25.0712 8.54305 25.8452C8.77182 25.953 8.91107 25.9824 9.27412 25.9971C10.5921 26.0559 12.1885 25.228 13.7551 23.6849C14.6304 22.8228 15.2719 22.0047 15.8687 20.9858C16.1572 20.4959 16.565 19.6337 16.565 19.5113C16.565 19.4672 16.4954 19.2418 16.4108 19.0116C16.0577 18.0319 15.824 16.8905 15.7444 15.7638L15.7096 15.2886L15.4858 15.2593C15.2272 15.225 15.1476 15.2299 14.7995 15.2789Z" fill="#D86C52"/>
<path d="M36 20.8964V4.60791H39.1887V10.2744C39.5191 9.84348 39.9967 9.48798 40.6215 9.20789C41.2463 8.9278 41.9681 8.78775 42.7869 8.78775C44.0078 8.78775 45.0671 9.06066 45.9648 9.60648C46.8626 10.1523 47.5484 10.8956 48.0224 11.8364C48.4964 12.7773 48.7334 13.8222 48.7334 14.9713C48.7334 16.1204 48.4964 17.1654 48.0224 18.1062C47.5484 19.047 46.8626 19.7904 45.9648 20.3362C45.0671 20.882 44.0078 21.1549 42.7869 21.1549C41.9968 21.1549 41.2679 21.0077 40.6 20.7132C39.9321 20.4188 39.4617 20.0848 39.1887 19.7114V20.8964H36ZM39.9321 17.4168C40.5138 18.0128 41.3074 18.3109 42.3129 18.3109C43.2896 18.3109 44.076 17.9949 44.6721 17.3629C45.2682 16.7309 45.5662 15.9337 45.5662 14.9713C45.5662 13.9802 45.2754 13.1723 44.6936 12.5475C44.1119 11.9226 43.3183 11.6102 42.3129 11.6102C41.3218 11.6102 40.5318 11.9226 39.9428 12.5475C39.3539 13.1723 39.0595 13.9802 39.0595 14.9713C39.0595 16.0055 39.3503 16.8207 39.9321 17.4168ZM57.0069 12.1381C56.3893 12.2889 55.8219 12.6444 55.3048 13.2046C54.7877 13.7648 54.5292 14.5835 54.5292 15.6608V20.8964H51.3189V9.0463H54.5292V10.6191C55.0606 9.9153 55.7106 9.43771 56.4791 9.18634C57.2475 8.93498 57.9478 8.81648 58.5798 8.83084V11.9765C58.1488 11.9334 57.6246 11.9873 57.0069 12.1381ZM69.2664 19.7114C68.9934 20.0848 68.523 20.4188 67.8551 20.7132C67.1872 21.0077 66.4583 21.1549 65.6683 21.1549C64.4473 21.1549 63.388 20.882 62.4903 20.3362C61.5925 19.7904 60.9067 19.047 60.4327 18.1062C59.9587 17.1654 59.7217 16.1204 59.7217 14.9713C59.7217 13.8222 59.9587 12.7773 60.4327 11.8364C60.9067 10.8956 61.5925 10.1523 62.4903 9.60648C63.388 9.06066 64.4473 8.78775 65.6683 8.78775C66.487 8.78775 67.2088 8.9278 67.8336 9.20789C68.4584 9.48798 68.936 9.84348 69.2664 10.2744V9.0463H72.4551V20.8964H69.2664V19.7114ZM68.5123 12.5475C67.9234 11.9226 67.1334 11.6102 66.1423 11.6102C65.1368 11.6102 64.3432 11.9226 63.7615 12.5475C63.1797 13.1723 62.8889 13.9802 62.8889 14.9713C62.8889 15.9337 63.1869 16.7309 63.783 17.3629C64.3791 17.9949 65.1655 18.3109 66.1423 18.3109C67.1477 18.3109 67.9413 18.0128 68.523 17.4168C69.1048 16.8207 69.3956 16.0055 69.3956 14.9713C69.3956 13.9802 69.1012 13.1723 68.5123 12.5475ZM74.9328 11.8688V9.08939H86.2012L79.7375 18.0954H85.5333V20.8964H74.0495L80.4916 11.8688H74.9328ZM86.4597 9.08939H89.8855L91.8677 14.3465L94.7332 8.44302L97.6419 14.3681L99.6887 9.08939H103.093L98.0081 21.3919L94.7332 15.1006L91.5014 21.3919L86.4597 9.08939ZM107.93 20.6163C106.946 20.2284 106.102 19.5713 105.398 18.6449C104.694 17.7184 104.343 16.5082 104.343 15.0144C104.343 13.5206 104.698 12.314 105.409 11.3948C106.12 10.4755 106.971 9.82194 107.962 9.43412C108.953 9.0463 109.894 8.85239 110.785 8.85239C111.819 8.85239 112.803 9.08221 113.736 9.54185C114.67 10.0015 115.435 10.6766 116.031 11.5671C116.627 12.4577 116.94 13.5134 116.968 14.7343C116.968 15.1078 116.961 15.431 116.947 15.7039C116.932 15.9768 116.918 16.1492 116.904 16.221H107.553C107.725 17.0541 108.156 17.6214 108.846 17.9231C109.535 18.2247 110.181 18.3755 110.785 18.3755C111.56 18.3755 112.178 18.2355 112.638 17.9554C113.097 17.6753 113.492 17.3557 113.823 16.9966L116.322 18.4402C114.972 20.2787 113.126 21.198 110.785 21.198C109.865 21.198 108.914 21.0041 107.93 20.6163ZM108.587 12.332C108.027 12.7701 107.711 13.3051 107.639 13.9371H113.564C113.521 13.5637 113.377 13.2046 113.133 12.8599C112.889 12.5151 112.562 12.2315 112.153 12.0088C111.743 11.7862 111.28 11.6749 110.763 11.6749C109.873 11.6749 109.147 11.8939 108.587 12.332ZM122.602 20.6163C121.619 20.2284 120.775 19.5713 120.071 18.6449C119.367 17.7184 119.015 16.5082 119.015 15.0144C119.015 13.5206 119.371 12.314 120.082 11.3948C120.793 10.4755 121.644 9.82194 122.635 9.43412C123.626 9.0463 124.567 8.85239 125.457 8.85239C126.491 8.85239 127.475 9.08221 128.409 9.54185C129.343 10.0015 130.107 10.6766 130.704 11.5671C131.3 12.4577 131.612 13.5134 131.641 14.7343C131.641 15.1078 131.634 15.431 131.619 15.7039C131.605 15.9768 131.591 16.1492 131.576 16.221H122.225C122.398 17.0541 122.829 17.6214 123.518 17.9231C124.208 18.2247 124.854 18.3755 125.457 18.3755C126.233 18.3755 126.85 18.2355 127.31 17.9554C127.77 17.6753 128.165 17.3557 128.495 16.9966L130.994 18.4402C129.644 20.2787 127.798 21.198 125.457 21.198C124.538 21.198 123.586 21.0041 122.602 20.6163ZM123.26 12.332C122.699 12.7701 122.383 13.3051 122.312 13.9371H128.237C128.193 13.5637 128.05 13.2046 127.806 12.8599C127.561 12.5151 127.235 12.2315 126.825 12.0088C126.416 11.7862 125.953 11.6749 125.436 11.6749C124.545 11.6749 123.82 11.8939 123.26 12.332ZM143.232 19.7114C142.959 20.0848 142.489 20.4188 141.821 20.7132C141.153 21.0077 140.424 21.1549 139.634 21.1549C138.413 21.1549 137.354 20.882 136.456 20.3362C135.558 19.7904 134.873 19.047 134.399 18.1062C133.925 17.1654 133.688 16.1204 133.688 14.9713C133.688 13.8222 133.925 12.7773 134.399 11.8364C134.873 10.8956 135.558 10.1523 136.456 9.60648C137.354 9.06066 138.413 8.78775 139.634 8.78775C140.453 8.78775 141.175 8.9278 141.8 9.20789C142.424 9.48798 142.902 9.84348 143.232 10.2744V4.60791H146.421V20.8964H143.232V19.7114ZM142.478 12.5475C141.889 11.9226 141.099 11.6102 140.108 11.6102C139.103 11.6102 138.309 11.9226 137.727 12.5475C137.146 13.1723 136.855 13.9802 136.855 14.9713C136.855 15.9337 137.153 16.7309 137.749 17.3629C138.345 17.9949 139.131 18.3109 140.108 18.3109C141.114 18.3109 141.907 18.0128 142.489 17.4168C143.071 16.8207 143.362 16.0055 143.362 14.9713C143.362 13.9802 143.067 13.1723 142.478 12.5475Z" fill="#07252C"/>
</svg>
